<?xml version="1.0" standalone="no"?>
<!DOCTYPE svg PUBLIC "-//W3C//DTD SVG 20010904//EN"
 "http://www.w3.org/TR/2001/REC-SVG-20010904/DTD/svg10.dtd">
<svg version="1.0" xmlns="http://www.w3.org/2000/svg"
 width="300.000000pt" height="300.000000pt" viewBox="0 0 300.000000 300.000000"
 preserveAspectRatio="xMidYMid meet">
<metadata>
Created by potrace 1.14, written by Peter Selinger 2001-2017
</metadata>
<g transform="translate(0.000000,300.000000) scale(0.100000,-0.100000)"
fill="#000000" stroke="none">
<path d="M973 2458 c-152 -12 -366 -64 -645 -154 -92 -30 -170 -54 -172 -54
-2 0 15 -51 39 -112 23 -62 61 -165 84 -228 23 -63 46 -122 51 -130 9 -12 19
-5 59 40 27 30 51 53 54 50 2 -3 13 -32 25 -65 27 -80 97 -282 170 -490 33
-93 94 -269 137 -390 42 -121 95 -273 118 -337 l41 -117 27 17 c108 71 249
180 249 194 0 9 -16 72 -36 140 -46 159 -93 328 -99 353 -3 11 -15 54 -28 95
l-23 75 156 155 c143 142 300 324 339 392 9 16 18 28 21 28 3 0 18 -34 33 -75
16 -41 32 -75 36 -75 4 0 27 23 50 50 23 27 46 50 50 50 5 0 11 -10 14 -22 3
-13 31 -95 62 -183 64 -180 165 -467 230 -655 55 -156 159 -453 177 -503 l13
-37 40 27 c22 14 42 29 45 33 3 3 48 36 101 73 l96 68 -63 222 c-35 122 -79
274 -97 337 l-33 115 147 145 c277 274 426 484 443 620 18 147 -144 304 -354
346 -30 6 -285 6 -320 0 -14 -2 -47 -7 -75 -11 -27 -3 -75 -13 -105 -20 -30
-8 -66 -16 -80 -18 -38 -7 -267 -73 -334 -97 l-60 -20 -40 38 c-56 53 -91 76
-160 101 -85 32 -225 42 -383 29z m181 -444 c22 -4 38 -13 41 -24 11 -34 -55
-136 -161 -250 -18 -19 -46 -51 -63 -70 -16 -19 -32 -32 -35 -30 -2 3 -23 72
-46 154 -47 173 -49 166 53 201 68 23 153 30 211 19z m1281 -2 c39 -11 40 -37
5 -99 -37 -65 -225 -282 -234 -272 -2 2 -23 71 -46 153 -48 173 -50 166 54
201 68 23 171 31 221 17z"/>
</g>
</svg>
